<svg xmlns="http://www.w3.org/2000/svg" width="135" height="40" viewBox="0 0 135 40"><defs><style>.a{fill:#010101;}.b{fill:#a6a5a5;}.c,.d{fill:#fff;}.c{stroke:#fff;stroke-miterlimit:10;stroke-width:0.2px;}.e{fill:#ea4535;}.f{fill:#f9bc15;}.g{fill:#557ebf;}.h{fill:#36a852;}</style></defs><path class="a" d="M134,35.27a3.83,3.83,0,0,1-3.83,3.83H4.73A3.83,3.83,0,0,1,.89,35.27V4.72A3.84,3.84,0,0,1,4.73.89H130.2A3.84,3.84,0,0,1,134,4.72h0V35.27Z"/><path class="b" d="M130,0H5A5,5,0,0,0,0,5V35a5,5,0,0,0,5,5H130a5,5,0,0,0,5-5V5a5,5,0,0,0-5-5Zm0,.8A4.21,4.21,0,0,1,134.2,5V35a4.2,4.2,0,0,1-4.2,4.2H5A4.2,4.2,0,0,1,.8,35V5A4.21,4.21,0,0,1,5,.79H130"/><path class="b" d="M130,0H5A5,5,0,0,0,0,5V35a5,5,0,0,0,5,5H130a5,5,0,0,0,5-5V5a5,5,0,0,0-5-5Zm0,.8A4.21,4.21,0,0,1,134.2,5V35a4.2,4.2,0,0,1-4.2,4.2H5A4.2,4.2,0,0,1,.8,35V5A4.21,4.21,0,0,1,5,.79H130"/><path class="c" d="M47.5,10.24a2.72,2.72,0,0,1-.75,2,2.89,2.89,0,0,1-2.2.88A3.09,3.09,0,0,1,41.43,10a3.09,3.09,0,0,1,3.12-3.13,3.27,3.27,0,0,1,1.25.23,2.57,2.57,0,0,1,1,.66l-.55.56a1.85,1.85,0,0,0-.72-.53,2.43,2.43,0,0,0-.94-.19,2.27,2.27,0,0,0-1.66.68A2.35,2.35,0,0,0,42.22,10a2.35,2.35,0,0,0,.67,1.72,2.27,2.27,0,0,0,1.66.68A2.21,2.21,0,0,0,46,11.89a2,2,0,0,0,.69-1.38H44.55V9.79h2.91A2.42,2.42,0,0,1,47.5,10.24Z"/><path class="c" d="M52.11,7v.74H49.38v1.9h2.46v.72H49.38v1.9h2.73V13h-3.5V7Z"/><path class="c" d="M55.36,7.74V13h-.77V7.74H52.91V7H57v.74Z"/><path class="c" d="M60.79,13H60V7h.77Z"/><path class="c" d="M64.21,7.74V13h-.77V7.74H61.76V7h4.13v.74Z"/><path class="c" d="M74.57,10a3,3,0,0,1-.88,2.23,3,3,0,0,1-2.2.9,3,3,0,0,1-2.19-.9A3,3,0,0,1,68.41,10a3,3,0,0,1,.89-2.23,3.11,3.11,0,0,1,4.39,0A3,3,0,0,1,74.57,10Zm-5.38,0a2.37,2.37,0,0,0,.66,1.72,2.32,2.32,0,0,0,3.28,0A2.35,2.35,0,0,0,73.79,10a2.35,2.35,0,0,0-.66-1.72,2.32,2.32,0,0,0-3.28,0A2.37,2.37,0,0,0,69.19,10Z"/><path class="c" d="M76.43,13h-.77V7h.93l2.92,4.67h0l0-1.16V7h.77v6h-.8l-3-4.89h0l0,1.15Z"/><path class="d" d="M68.22,21.75A4.26,4.26,0,1,0,72.49,26,4.19,4.19,0,0,0,68.22,21.75Zm0,6.83A2.58,2.58,0,1,1,70.62,26,2.46,2.46,0,0,1,68.22,28.58ZM58.9,21.75A4.26,4.26,0,1,0,63.17,26,4.19,4.19,0,0,0,58.9,21.75Zm0,6.83A2.58,2.58,0,1,1,61.3,26,2.46,2.46,0,0,1,58.9,28.58ZM47.82,23.06v1.8h4.32a3.71,3.71,0,0,1-1,2.27,4.42,4.42,0,0,1-3.34,1.32,4.8,4.8,0,0,1,0-9.6,4.62,4.62,0,0,1,3.26,1.29l1.27-1.27a6.3,6.3,0,0,0-4.53-1.82,6.61,6.61,0,1,0,0,13.21,6.07,6.07,0,0,0,4.61-1.85A6,6,0,0,0,54,24.18a6.27,6.27,0,0,0-.09-1.12Zm45.31,1.4a4,4,0,0,0-3.64-2.71,4,4,0,0,0-4,4.25,4.16,4.16,0,0,0,4.22,4.26,4.23,4.23,0,0,0,3.55-1.89l-1.45-1a2.44,2.44,0,0,1-2.1,1.17,2.15,2.15,0,0,1-2.06-1.29l5.69-2.35Zm-5.8,1.42a2.34,2.34,0,0,1,2.23-2.49,1.66,1.66,0,0,1,1.58.91ZM82.71,30h1.87V17.5H82.71Zm-3.06-7.3h-.07a2.92,2.92,0,0,0-2.24-.95,4.26,4.26,0,0,0,0,8.51,2.87,2.87,0,0,0,2.24-1h.07v.61c0,1.63-.87,2.5-2.27,2.5a2.36,2.36,0,0,1-2.15-1.51l-1.62.67a4,4,0,0,0,3.77,2.52c2.19,0,4-1.29,4-4.43V22H79.65Zm-2.14,5.88a2.58,2.58,0,0,1,0-5.15A2.39,2.39,0,0,1,79.78,26,2.38,2.38,0,0,1,77.51,28.58ZM101.89,17.5H97.42V30h1.86V25.26h2.61a3.89,3.89,0,1,0,0-7.76Zm0,6H99.28V19.24h2.65a2.14,2.14,0,1,1,0,4.28Zm11.54-1.79a3.5,3.5,0,0,0-3.33,1.91l1.65.69a1.78,1.78,0,0,1,1.71-.91,1.8,1.8,0,0,1,2,1.61v.12a4.18,4.18,0,0,0-1.95-.48c-1.78,0-3.6,1-3.6,2.82A2.9,2.9,0,0,0,113,30.24,2.65,2.65,0,0,0,115.4,29h.06v1h1.8V25.19C117.26,23,115.61,21.73,113.47,21.73Zm-.23,6.85c-.61,0-1.46-.31-1.46-1.06,0-1,1.06-1.34,2-1.34a3.32,3.32,0,0,1,1.7.42A2.26,2.26,0,0,1,113.24,28.58ZM123.82,22l-2.13,5.42h-.07L119.4,22h-2l3.33,7.58-1.9,4.21h2L125.9,22ZM107,30h1.86V17.5H107Z"/><path class="e" d="M20.8,19.42,10.15,30.72h0a2.89,2.89,0,0,0,4.24,1.74l0,0,12-6.92Z"/><path class="f" d="M31.57,17.5h0l-5.17-3-5.83,5.19,5.85,5.85,5.14-3a2.87,2.87,0,0,0,0-5.06Z"/><path class="g" d="M10.15,9.28a2.94,2.94,0,0,0-.1.74V30a2.94,2.94,0,0,0,.1.74l11-11Z"/><path class="h" d="M20.88,20l5.51-5.51-12-6.94a2.92,2.92,0,0,0-1.49-.41,2.89,2.89,0,0,0-2.78,2.13h0Z"/></svg>