<svg xmlns="http://www.w3.org/2000/svg" width="135" height="40" viewBox="0 0 135 40"><defs><style>.a{fill:#a6a6a6;}.b{fill:#fff;}.c{fill:#c8102e;fill-rule:evenodd;}</style></defs><rect width="135" height="40" rx="5"/><path class="a" d="M130,.8A4.2,4.2,0,0,1,134.2,5V35a4.2,4.2,0,0,1-4.2,4.2H5A4.2,4.2,0,0,1,.8,35V5A4.2,4.2,0,0,1,5,.8H130m0-.8H5A5,5,0,0,0,0,5V35a5,5,0,0,0,5,5H130a5,5,0,0,0,5-5V5a5,5,0,0,0-5-5Z"/><path class="b" d="M50.28,27H45.66l-1.14,3.1h-2L47,18.57h1.92l4.64,11.56H51.44Zm-4-1.57h3.45l-1.23-3.31c-.17-.46-.34-1-.51-1.52-.15.49-.31,1-.48,1.51Z"/><path class="b" d="M54.5,23.63c0-.64,0-1.34-.07-2.11h1.85a9.71,9.71,0,0,1,.15,1.1,3.46,3.46,0,0,1,2.63-1.26,3,3,0,0,1,2.78,1.81,5.49,5.49,0,0,1,.45,2.38,6,6,0,0,1-.52,2.58,3.72,3.72,0,0,1-1.43,1.62,4.18,4.18,0,0,1-2.14.55,5.16,5.16,0,0,1-1.73-.3v3.56l-2,.17V23.63ZM59.68,28a4,4,0,0,0,.6-2.37,3.47,3.47,0,0,0-.5-2.09,1.56,1.56,0,0,0-1.33-.65,2.17,2.17,0,0,0-1.06.27,4,4,0,0,0-.92.72v4.61a2.47,2.47,0,0,0,.68.23,3.46,3.46,0,0,0,.78.09A2.05,2.05,0,0,0,59.68,28Z"/><path class="b" d="M63.55,23.63c0-.64,0-1.34-.06-2.11h1.85a9.72,9.72,0,0,1,.14,1.1,3.5,3.5,0,0,1,2.64-1.26,3.07,3.07,0,0,1,1.59.44,3.12,3.12,0,0,1,1.19,1.37,5.49,5.49,0,0,1,.45,2.38,6.12,6.12,0,0,1-.52,2.58,3.68,3.68,0,0,1-1.44,1.62,4.15,4.15,0,0,1-2.14.55,5.21,5.21,0,0,1-1.73-.3v3.56l-2,.17V23.63ZM68.73,28a3.87,3.87,0,0,0,.61-2.37,3.47,3.47,0,0,0-.5-2.09,1.58,1.58,0,0,0-1.33-.65,2.14,2.14,0,0,0-1.06.27,4.09,4.09,0,0,0-.93.72v4.61a2.66,2.66,0,0,0,.69.23,3.44,3.44,0,0,0,.77.09A2,2,0,0,0,68.73,28Z"/><path class="b" d="M75.06,29.58a4.78,4.78,0,0,1-2-2,6.61,6.61,0,0,1-.68-3.11,6.56,6.56,0,0,1,.78-3.31,5.17,5.17,0,0,1,2.16-2,6.74,6.74,0,0,1,3-.68,7.85,7.85,0,0,1,1.9.22,8.24,8.24,0,0,1,1.69.6l-.51,1.52a7,7,0,0,0-3-.75,4.25,4.25,0,0,0-2.11.51A3.62,3.62,0,0,0,75,22a5.39,5.39,0,0,0-.5,2.41,5.8,5.8,0,0,0,.39,2.2,3.19,3.19,0,0,0,1.22,1.51,3.61,3.61,0,0,0,2.1.56,7.43,7.43,0,0,0,1.15-.09,7.11,7.11,0,0,0,1.08-.28V26H77.74V24.47h4.58v4.86a9.92,9.92,0,0,1-2.07.71,9.51,9.51,0,0,1-2.17.25,6.18,6.18,0,0,1-3-.7Z"/><path class="b" d="M89.42,30.13A8.77,8.77,0,0,1,89.29,29a3.74,3.74,0,0,1-1.19.92,3.51,3.51,0,0,1-1.64.38A3.19,3.19,0,0,1,85.1,30a2.35,2.35,0,0,1-1-.88,2.68,2.68,0,0,1-.35-1.43,2.46,2.46,0,0,1,.9-2,4.71,4.71,0,0,1,3-.75,11.72,11.72,0,0,1,1.57.11v-.16a2.15,2.15,0,0,0-.49-1.61,1.94,1.94,0,0,0-1.4-.47A5,5,0,0,0,86,23a6.17,6.17,0,0,0-1.26.44L84.44,22a7.65,7.65,0,0,1,1.39-.44,8.25,8.25,0,0,1,1.82-.2,4.68,4.68,0,0,1,1.9.34,2.49,2.49,0,0,1,1.22,1.16,4.83,4.83,0,0,1,.44,2.23v3.42c0,.35,0,.9.06,1.62Zm-1.18-1.6a3.09,3.09,0,0,0,1-.73V26.2c-.54-.05-1-.08-1.32-.08a2.74,2.74,0,0,0-1.69.39,1.32,1.32,0,0,0-.46,1.07,1.16,1.16,0,0,0,.34.94,1.28,1.28,0,0,0,.92.31,2.73,2.73,0,0,0,1.2-.3Z"/><path class="b" d="M92.94,28.06V17.89l2-.16v10a1.28,1.28,0,0,0,.18.78.75.75,0,0,0,.6.23,2.24,2.24,0,0,0,.52-.09L96.43,30a2.79,2.79,0,0,1-.68.18,5.24,5.24,0,0,1-.76.07c-1.37,0-2-.74-2-2.23Z"/><path class="b" d="M97.84,28.06V17.89l2-.16v10a1.27,1.27,0,0,0,.19.78.75.75,0,0,0,.6.23,2.24,2.24,0,0,0,.52-.09l.23,1.41a2.91,2.91,0,0,1-.68.18,5.37,5.37,0,0,1-.77.07c-1.36,0-2-.74-2-2.23Z"/><path class="b" d="M109.51,26.08h-5.64c.1,1.8.95,2.7,2.58,2.7a5.32,5.32,0,0,0,1.24-.15,7,7,0,0,0,1.22-.39l.43,1.35a7.42,7.42,0,0,1-3.25.7,4.7,4.7,0,0,1-2.31-.52,3.35,3.35,0,0,1-1.42-1.49,5.41,5.41,0,0,1-.47-2.35,5.7,5.7,0,0,1,.5-2.45,3.73,3.73,0,0,1,1.4-1.58,3.94,3.94,0,0,1,2.07-.54,3.57,3.57,0,0,1,2,.57,3.43,3.43,0,0,1,1.21,1.52,5.53,5.53,0,0,1,.4,2.1Zm-1.93-1.26a2.4,2.4,0,0,0-.52-1.54,1.57,1.57,0,0,0-1.23-.51,1.64,1.64,0,0,0-1.25.51,2.78,2.78,0,0,0-.65,1.54Z"/><path class="b" d="M111.09,23.68q0-.7-.06-2.16h1.84c0,.24.06.53.09.86s.05.6.06.81a7.52,7.52,0,0,1,.68-1,3.13,3.13,0,0,1,.77-.63,2.09,2.09,0,0,1,1-.24,2.59,2.59,0,0,1,.78.1l-.25,1.7a2.47,2.47,0,0,0-.63-.08,2.16,2.16,0,0,0-1.22.35,5,5,0,0,0-1.1,1.17v5.53h-2V23.68Z"/><path class="b" d="M117.44,33.65a5.75,5.75,0,0,1-.71-.17l.36-1.44a3.67,3.67,0,0,0,.51.11,2.87,2.87,0,0,0,.57.05c.87,0,1.53-.56,2-1.68l.13-.32-3.17-8.68h2.11l1.59,4.85a15.31,15.31,0,0,1,.51,1.91c.15-.62.32-1.24.53-1.87l1.61-4.89h2l-3.17,8.72a8.9,8.9,0,0,1-1,2,3.42,3.42,0,0,1-1.23,1.12,3.71,3.71,0,0,1-1.7.37,5.25,5.25,0,0,1-.92-.08Z"/><path class="b" d="M42.48,7.33H46l-.1.85H43.52V9.84h2.27v.81H43.52v1.84h2.54l-.09.87H42.48v-6Z"/><path class="b" d="M48.48,10.28,46.61,7.33h1.18L49.06,9.5,50.4,7.33h1.15l-1.86,2.91,2,3.12H50.5L49.07,11,47.6,13.36H46.45l2-3.08Z"/><path class="b" d="M52.47,7.33H54.1a2.85,2.85,0,0,1,1.75.46,1.61,1.61,0,0,1,.61,1.35,1.92,1.92,0,0,1-.28,1,1.76,1.76,0,0,1-.76.69,2.49,2.49,0,0,1-1.12.24,4.07,4.07,0,0,1-.79-.09v2.33h-1v-6ZM55.08,10a1.07,1.07,0,0,0,.34-.85,1,1,0,0,0-.34-.81,1.74,1.74,0,0,0-1-.24h-.57v2.14a4.39,4.39,0,0,0,.6.06,1.39,1.39,0,0,0,1-.3Z"/><path class="b" d="M57.49,7.33h1v5.14H61l-.08.89H57.49Z"/><path class="b" d="M62.61,13.06a2.54,2.54,0,0,1-1-1.06,3.52,3.52,0,0,1-.35-1.6,3.51,3.51,0,0,1,.38-1.66,2.61,2.61,0,0,1,1.07-1.11,3.37,3.37,0,0,1,1.66-.39,3,3,0,0,1,1.57.38,2.5,2.5,0,0,1,1,1.06,3.47,3.47,0,0,1,.35,1.58A3.6,3.6,0,0,1,66.89,12a2.58,2.58,0,0,1-1.07,1.1,3.32,3.32,0,0,1-1.64.39,3.07,3.07,0,0,1-1.57-.38Zm2.7-.74a1.7,1.7,0,0,0,.65-.81,3.05,3.05,0,0,0,.22-1.17A3.16,3.16,0,0,0,66,9.18a1.66,1.66,0,0,0-.61-.81,1.81,1.81,0,0,0-1.08-.3,1.86,1.86,0,0,0-1.08.3,1.91,1.91,0,0,0-.66.82,3,3,0,0,0-.22,1.14,3.13,3.13,0,0,0,.21,1.17,1.73,1.73,0,0,0,1.7,1.11,1.86,1.86,0,0,0,1.07-.29Z"/><path class="b" d="M68.43,7.33h1.89a2.46,2.46,0,0,1,1.56.41,1.39,1.39,0,0,1,.53,1.18,1.74,1.74,0,0,1-.19.84,1.86,1.86,0,0,1-.47.59,2,2,0,0,1-.59.35L73,13.36H71.81L70.24,11h-.77v2.39h-1v-6Zm1.63,2.85a1.41,1.41,0,0,0,.67-.15,1.1,1.1,0,0,0,.46-.42A1.12,1.12,0,0,0,71.35,9a.77.77,0,0,0-.29-.66,1.39,1.39,0,0,0-.83-.21h-.76v2.06Z"/><path class="b" d="M73.84,7.33H77.4l-.1.85H74.88V9.84h2.28v.81H74.88v1.84h2.54l-.08.87h-3.5v-6Z"/><path class="b" d="M81.26,7.33h1v6h-1Z"/><path class="b" d="M85.06,8.2H83.19l.09-.87H88l-.09.87H86.1v5.16h-1V8.2Z"/><path class="b" d="M92.49,13.06a2.52,2.52,0,0,1-1-1.06,3.52,3.52,0,0,1-.35-1.6,3.63,3.63,0,0,1,.37-1.66,2.63,2.63,0,0,1,1.08-1.11,3.35,3.35,0,0,1,1.65-.39,3.08,3.08,0,0,1,1.58.38,2.56,2.56,0,0,1,1,1.06,3.47,3.47,0,0,1,.35,1.58A3.6,3.6,0,0,1,96.78,12a2.55,2.55,0,0,1-1.08,1.1,3.28,3.28,0,0,1-1.63.39,3.13,3.13,0,0,1-1.58-.38Zm2.7-.74a1.77,1.77,0,0,0,.66-.81,3.05,3.05,0,0,0,.21-1.17,3.17,3.17,0,0,0-.19-1.16,1.72,1.72,0,0,0-.61-.81,2.09,2.09,0,0,0-2.16,0,1.78,1.78,0,0,0-.66.82,2.79,2.79,0,0,0-.22,1.14,3.13,3.13,0,0,0,.21,1.17,1.76,1.76,0,0,0,.63.81,2.07,2.07,0,0,0,2.13,0Z"/><path class="b" d="M98.32,7.33h1.19l3,4.67c0-.44,0-.86,0-1.23V7.33h1v6h-1.16l-3-4.75c0,.54,0,1,0,1.43v3.32h-1v-6Z"/><path class="c" d="M27.86,7.28H16.73c-5.24,0-7.16,1.91-7.16,7.16V25.56c0,5.24,1.92,7.16,7.16,7.16H27.85c5.25,0,7.17-1.92,7.17-7.16V14.44C35,9.19,33.1,7.28,27.86,7.28Z"/><path class="b" d="M14.61,20h.67v3.33h-.67V22H13.08v1.35h-.67V20h.67v1.34h1.53Zm3.8,1.91c0,.54-.27.83-.76.83s-.76-.3-.76-.86V20h-.67v1.9a1.32,1.32,0,0,0,1.43,1.48,1.35,1.35,0,0,0,1.44-1.5V20h-.68v1.9Zm7.8.38L25.46,20h-.55l-.76,2.29L23.41,20H22.7l1.16,3.33h.56l.75-2.18.76,2.18h.56L27.65,20H27Zm2.65-.39h1.23v-.61H28.86v-.68h1.78V20H28.19v3.32h2.52v-.61H28.86Zm2.65,1.43h.67V20h-.67Zm-11.09-.69-.3.69h-.69L20.89,20h.6L23,23.33h-.71l-.3-.69Zm.25-.6h1l-.51-1.19L20.67,22Z"/><path class="b" d="M22.29,15.77a4.24,4.24,0,0,1-4.23-4.24h.6a3.64,3.64,0,1,0,7.27,0h.6a4.24,4.24,0,0,1-4.24,4.24Z"/></svg>